<svg width="50" height="47" viewBox="0 0 50 47" fill="none" xmlns="http://www.w3.org/2000/svg">
<path d="M44.6606 22.0857C44.6606 34.0881 34.8745 43.8214 22.7985 43.8214C10.7225 43.8214 0.936426 34.0881 0.936426 22.0857C0.936426 10.0833 10.7225 0.35 22.7985 0.35C34.8745 0.35 44.6606 10.0833 44.6606 22.0857Z" fill="white" stroke="#383838" stroke-width="0.7"/>
<mask id="path-2-inside-1_22280_253274" fill="white">
<path fill-rule="evenodd" clip-rule="evenodd" d="M21.4049 31.2444C21.9202 31.8194 22.8208 31.8194 23.3362 31.2444L28.5959 25.3763C29.3444 24.5412 28.7517 23.214 27.6302 23.214L26.8236 23.214L26.8236 16.2884C26.8236 15.8109 26.4365 15.4239 25.9591 15.4239L19.1278 15.4239C18.6504 15.4239 18.2633 15.811 18.2633 16.2884L18.2633 23.214L17.1108 23.214C15.9894 23.214 15.3966 24.5412 16.1452 25.3763L21.4049 31.2444Z"/>
</mask>
<path fill-rule="evenodd" clip-rule="evenodd" d="M21.4049 31.2444C21.9202 31.8194 22.8208 31.8194 23.3362 31.2444L28.5959 25.3763C29.3444 24.5412 28.7517 23.214 27.6302 23.214L26.8236 23.214L26.8236 16.2884C26.8236 15.8109 26.4365 15.4239 25.9591 15.4239L19.1278 15.4239C18.6504 15.4239 18.2633 15.811 18.2633 16.2884L18.2633 23.214L17.1108 23.214C15.9894 23.214 15.3966 24.5412 16.1452 25.3763L21.4049 31.2444Z" fill="white"/>
<path d="M23.3362 31.2444L23.8574 31.7116L23.8574 31.7116L23.3362 31.2444ZM21.4049 31.2444L20.8836 31.7116V31.7116L21.4049 31.2444ZM28.5959 25.3763L29.1171 25.8436L29.1171 25.8436L28.5959 25.3763ZM26.8236 23.214L26.1236 23.214L26.1236 23.914L26.8236 23.914L26.8236 23.214ZM18.2633 23.214L18.2633 23.914L18.9633 23.914L18.9633 23.214L18.2633 23.214ZM16.1452 25.3763L15.6239 25.8436H15.6239L16.1452 25.3763ZM22.8149 30.7771C22.5777 31.0418 22.1633 31.0418 21.9261 30.7771L20.8836 31.7116C21.6772 32.5969 23.0638 32.5969 23.8574 31.7116L22.8149 30.7771ZM28.0746 24.9091L22.8149 30.7771L23.8574 31.7116L29.1171 25.8436L28.0746 24.9091ZM27.6302 23.914C28.1463 23.914 28.4191 24.5248 28.0746 24.9091L29.1171 25.8436C30.2697 24.5577 29.357 22.514 27.6302 22.514L27.6302 23.914ZM26.8236 23.914L27.6302 23.914L27.6302 22.514L26.8236 22.514L26.8236 23.914ZM26.1236 16.2884L26.1236 23.214L27.5236 23.214L27.5236 16.2884L26.1236 16.2884ZM25.9591 16.1239C26.0499 16.1239 26.1236 16.1976 26.1236 16.2884L27.5236 16.2884C27.5236 15.4244 26.8231 14.7239 25.9591 14.7239L25.9591 16.1239ZM19.1278 16.1239L25.9591 16.1239L25.9591 14.7239L19.1278 14.7239L19.1278 16.1239ZM18.9633 16.2884C18.9633 16.1975 19.037 16.1239 19.1278 16.1239L19.1278 14.7239C18.2638 14.7239 17.5633 15.4244 17.5633 16.2884L18.9633 16.2884ZM18.9633 23.214L18.9633 16.2884L17.5633 16.2884L17.5633 23.214L18.9633 23.214ZM17.1108 23.914L18.2633 23.914L18.2633 22.514L17.1108 22.514L17.1108 23.914ZM16.6664 24.9091C16.322 24.5248 16.5947 23.914 17.1108 23.914L17.1108 22.514C15.384 22.514 14.4713 24.5577 15.6239 25.8436L16.6664 24.9091ZM21.9261 30.7771L16.6664 24.9091L15.6239 25.8436L20.8836 31.7116L21.9261 30.7771Z" fill="#383838" mask="url(#path-2-inside-1_22280_253274)"/>
<ellipse cx="9.32598" cy="2.79586" rx="9.32598" ry="2.79586" transform="matrix(-1 0 0 1 49 37.9853)" fill="white" stroke="#383838" stroke-width="0.7"/>
<path fill-rule="evenodd" clip-rule="evenodd" d="M30.3475 40.7811C30.3476 42.3252 34.523 43.5769 39.6735 43.5769C44.8111 43.5769 48.9784 42.3315 48.9994 40.7927V43.1926L48.9994 43.2043C48.9994 44.7484 44.8241 46.0001 39.6735 46.0001C34.5229 46.0001 30.3475 44.7484 30.3475 43.2043V43.2042H30.3474V40.7811H30.3475Z" fill="white"/>
<path d="M30.3475 40.7811V40.4311H30.6974L30.6975 40.7811L30.3475 40.7811ZM48.9994 40.7927L48.6494 40.7879L49.3494 40.7927H48.9994ZM48.9994 43.1926L48.6494 43.195V43.1926H48.9994ZM48.9994 43.2043L49.3494 43.2019V43.2043H48.9994ZM30.3475 43.2042V42.8542H30.6975V43.2042H30.3475ZM30.3474 43.2042V43.5542H29.9974V43.2042H30.3474ZM30.3474 40.7811H29.9974V40.4311H30.3474V40.7811ZM30.6975 40.7811C30.6975 40.9973 30.8452 41.2737 31.2828 41.5838C31.7113 41.8875 32.3539 42.1753 33.1796 42.4228C34.8264 42.9165 37.1224 43.2269 39.6735 43.2269V43.9269C37.074 43.9269 34.7071 43.6115 32.9786 43.0933C32.1166 42.8349 31.3935 42.5202 30.878 42.1549C30.3718 41.7961 29.9975 41.337 29.9975 40.7812L30.6975 40.7811ZM39.6735 43.2269C42.2181 43.2269 44.509 42.918 46.155 42.4265C46.9802 42.18 47.6238 41.8934 48.0545 41.5906C48.4947 41.2811 48.6464 41.0044 48.6494 40.7879L49.3493 40.7975C49.3418 41.3503 48.9648 41.8064 48.4571 42.1632C47.94 42.5267 47.2168 42.8399 46.3553 43.0972C44.628 43.613 42.2665 43.9269 39.6735 43.9269V43.2269ZM49.3494 40.7927V43.1926H48.6494V40.7927H49.3494ZM49.3493 43.1902L49.3494 43.2019L48.6494 43.2067L48.6494 43.195L49.3493 43.1902ZM49.3494 43.2043C49.3494 43.7601 48.9752 44.2193 48.4689 44.5781C47.9535 44.9434 47.2304 45.2581 46.3684 45.5165C44.6399 46.0347 42.273 46.3501 39.6735 46.3501V45.6501C42.2245 45.6501 44.5206 45.3397 46.1674 44.846C46.9931 44.5985 47.6357 44.3107 48.0642 44.007C48.5017 43.6969 48.6494 43.4205 48.6494 43.2043H49.3494ZM39.6735 46.3501C37.0739 46.3501 34.707 46.0347 32.9785 45.5165C32.1165 45.2581 31.3934 44.9434 30.878 44.5781C30.3717 44.2193 29.9975 43.7601 29.9975 43.2043H30.6975C30.6975 43.4205 30.8452 43.6969 31.2828 44.007C31.7112 44.3107 32.3539 44.5985 33.1795 44.846C34.8263 45.3397 37.1224 45.6501 39.6735 45.6501V46.3501ZM29.9975 43.2043V43.2042H30.6975V43.2043H29.9975ZM30.3475 43.5542H30.3474V42.8542H30.3475V43.5542ZM29.9974 43.2042V40.7811H30.6974V43.2042H29.9974ZM30.3474 40.4311H30.3475V41.1311H30.3474V40.4311Z" fill="#383838"/>
<ellipse cx="9.32598" cy="2.79586" rx="9.32598" ry="2.79586" transform="matrix(-1 0 0 1 49 35.5717)" fill="white" stroke="#383838" stroke-width="0.7"/>
<path fill-rule="evenodd" clip-rule="evenodd" d="M30.3475 38.3676C30.3477 39.9117 34.523 41.1633 39.6735 41.1633C44.8111 41.1633 48.9784 39.9179 48.9994 38.3791V40.779L48.9994 40.7907C48.9994 42.3348 44.8241 43.5866 39.6735 43.5866C34.5229 43.5866 30.3475 42.3348 30.3475 40.7907V40.7907H30.3474V38.3676H30.3475Z" fill="white"/>
<path d="M30.3475 38.3676V38.0176H30.6974L30.6975 38.3676L30.3475 38.3676ZM48.9994 38.3791L48.6494 38.3744L49.3494 38.3791H48.9994ZM48.9994 40.779L48.6494 40.7814V40.779H48.9994ZM48.9994 40.7907L49.3494 40.7883V40.7907H48.9994ZM30.3475 40.7907V40.4407H30.6975V40.7907H30.3475ZM30.3474 40.7907V41.1407H29.9974V40.7907H30.3474ZM30.3474 38.3676H29.9974V38.0176H30.3474V38.3676ZM30.6975 38.3676C30.6975 38.5838 30.8453 38.8601 31.2829 39.1703C31.7113 39.4739 32.354 39.7617 33.1797 40.0092C34.8265 40.5029 37.1225 40.8133 39.6735 40.8133V41.5133C37.074 41.5133 34.7071 41.1979 32.9787 40.6797C32.1166 40.4213 31.3935 40.1067 30.8781 39.7414C30.3718 39.3826 29.9976 38.9235 29.9975 38.3677L30.6975 38.3676ZM39.6735 40.8133C42.2181 40.8133 44.509 40.5045 46.155 40.0129C46.9802 39.7665 47.6238 39.4798 48.0545 39.177C48.4947 38.8676 48.6464 38.5909 48.6494 38.3744L49.3493 38.3839C49.3418 38.9368 48.9648 39.3928 48.4571 39.7497C47.94 40.1131 47.2168 40.4263 46.3553 40.6836C44.628 41.1995 42.2665 41.5133 39.6735 41.5133V40.8133ZM49.3494 38.3791V40.779H48.6494V38.3791H49.3494ZM49.3493 40.7767L49.3494 40.7883L48.6494 40.7931L48.6494 40.7814L49.3493 40.7767ZM49.3494 40.7907C49.3494 41.3465 48.9752 41.8057 48.4689 42.1645C47.9535 42.5298 47.2304 42.8445 46.3684 43.1029C44.6399 43.6211 42.273 43.9366 39.6735 43.9366V43.2366C42.2245 43.2366 44.5206 42.9261 46.1674 42.4324C46.9931 42.1849 47.6357 41.8971 48.0642 41.5934C48.5017 41.2833 48.6494 41.0069 48.6494 40.7907H49.3494ZM39.6735 43.9366C37.0739 43.9366 34.707 43.6211 32.9785 43.1029C32.1165 42.8445 31.3934 42.5298 30.878 42.1645C30.3717 41.8057 29.9975 41.3465 29.9975 40.7907H30.6975C30.6975 41.0069 30.8452 41.2833 31.2828 41.5934C31.7112 41.8971 32.3539 42.1849 33.1795 42.4324C34.8263 42.9261 37.1224 43.2366 39.6735 43.2366V43.9366ZM29.9975 40.7907V40.7907H30.6975V40.7907H29.9975ZM30.3475 41.1407H30.3474V40.4407H30.3475V41.1407ZM29.9974 40.7907V38.3676H30.6974V40.7907H29.9974ZM30.3474 38.0176H30.3475V38.7176H30.3474V38.0176Z" fill="#383838"/>
<path fill-rule="evenodd" clip-rule="evenodd" d="M42.561 37.9061C41.3541 37.2392 40.2454 37.5159 39.3121 37.7694L38.0362 37.0618C38.4725 36.9419 38.9263 37.0029 39.278 37.1889L40.2403 36.7425C39.2228 36.2108 38.041 36.2256 37.1186 36.5517L36.6979 36.325L36.1331 36.5869L36.5493 36.8157C35.7007 37.3112 35.8056 37.9123 36.5749 38.3361C37.7292 38.974 38.7457 38.7595 39.6384 38.5248L41.0456 39.3025C40.5027 39.4525 39.9382 39.3943 39.539 39.1819L38.6038 39.6157C39.563 40.1454 40.8841 40.2211 41.9841 39.8224L42.5427 40.1305L43.1074 39.8686L42.5488 39.5604C43.4877 39.023 43.4201 38.3804 42.561 37.9061ZM37.5074 37.8841C37.2336 37.7348 37.1776 37.5231 37.4559 37.3165L38.5998 37.9496C38.1827 38.0364 37.8182 38.0551 37.5074 37.8841ZM41.6266 39.0523L40.3403 38.3398C40.822 38.2328 41.2608 38.1941 41.6458 38.4082C41.9729 38.5911 41.9507 38.8293 41.6266 39.0523Z" fill="#383838"/>
</svg>
