<svg width="51" height="47" viewBox="0 0 51 47" fill="white" xmlns="http://www.w3.org/2000/svg">
<path d="M3.64587 34.136V7.67977C3.64587 5.70142 5.24964 4.09766 7.22799 4.09766H37.4143V12.6831H46.8516V39.4913C46.8516 41.4697 45.2478 43.0735 43.2695 43.0735H13.036V34.136H3.64587Z" stroke="#383838" stroke-width="0.7"/>
<rect x="0.35" y="37.102" width="9.54797" height="9.54797" fill="white"/>
<rect x="0.35" y="37.102" width="9.54797" height="9.54797" fill="white"/>
<rect x="0.35" y="37.102" width="9.54797" height="9.54797" stroke="#2E2E2E" stroke-width="0.7"/>
<rect x="40.2516" y="0.35" width="9.54797" height="9.54797" fill="white"/>
<rect x="40.2516" y="0.35" width="9.54797" height="9.54797" fill="white"/>
<rect x="40.2516" y="0.35" width="9.54797" height="9.54797" stroke="#3D3D3D" stroke-width="0.7"/>
<rect x="16.3131" y="14.6494" width="17.8722" height="17.8722" rx="2.37315" fill="white"/>
<rect x="16.3131" y="14.6494" width="17.8722" height="17.8722" rx="2.37315" fill="white"/>
<rect x="16.3131" y="14.6494" width="17.8722" height="17.8722" rx="2.37315" stroke="#3D3D3D" stroke-width="0.62687"/>
<path d="M27.1276 21.75H23.3742C23.2147 21.75 23.0854 21.8793 23.0854 22.0387V25.7921C23.0854 25.9516 23.2147 26.0808 23.3742 26.0808H27.1276C27.287 26.0808 27.4163 25.9516 27.4163 25.7921V22.0387C27.4163 21.8793 27.287 21.75 27.1276 21.75Z" fill="#191919"/>
<path d="M22.7952 17.418H19.0418C18.8823 17.418 18.7531 17.5472 18.7531 17.7067V21.4601C18.7531 21.6195 18.8823 21.7488 19.0418 21.7488H22.7952C22.9546 21.7488 23.0839 21.6195 23.0839 21.4601V17.7067C23.0839 17.5472 22.9546 17.418 22.7952 17.418Z" fill="#191919"/>
<path d="M31.4557 17.418H27.7023C27.5428 17.418 27.4136 17.5472 27.4136 17.7067V21.4601C27.4136 21.6195 27.5428 21.7488 27.7023 21.7488H31.4557C31.6152 21.7488 31.7444 21.6195 31.7444 21.4601V17.7067C31.7444 17.5472 31.6152 17.418 31.4557 17.418Z" fill="#191919"/>
<path d="M22.7952 26.0801H19.0418C18.8823 26.0801 18.7531 26.2094 18.7531 26.3689V30.1223C18.7531 30.2817 18.8823 30.411 19.0418 30.411H22.7952C22.9546 30.411 23.0839 30.2817 23.0839 30.1223V26.3689C23.0839 26.2094 22.9546 26.0801 22.7952 26.0801Z" fill="#191919"/>
<path d="M31.4557 26.0801H27.7023C27.5428 26.0801 27.4136 26.2094 27.4136 26.3689V30.1223C27.4136 30.2817 27.5428 30.411 27.7023 30.411H31.4557C31.6152 30.411 31.7444 30.2817 31.7444 30.1223V26.3689C31.7444 26.2094 31.6152 26.0801 31.4557 26.0801Z" fill="#191919"/>
</svg>
